<?xml version="1.0" encoding="utf-8" ?>
<svg xmlns="http://www.w3.org/2000/svg" xmlns:cc="http://creativecommons.org/ns" xmlns:dc="http://purl.org/dc/elements/1.1/" xmlns:ev="http://www.w3.org/2001/xml-events" xmlns:inkscape="http://www.inkscape.org/namespaces/inkscape" xmlns:rdf="http://www.w3.org/1999/02/22-rdf-syntax-ns" xmlns:sodipodi="http://sodipodi.sourceforge.net/DTD/sodipodi-0.dtd" xmlns:xlink="http://www.w3.org/1999/xlink" baseProfile="tiny" height="0.30033784cm" version="1.2" viewBox="0 0 107.56756756756758 11.35135135135135" width="2.84605856cm">
  <metadata>
    <rdf:RDF>
      <cc:Work>
        <dc:format>image/svg+xml</dc:format>
        <dc:source>vpype text -f scripts -s 20 'Salvador DalE' linesimplify write signature.svg
</dc:source>
        <dc:date>2025-05-16T15:39:32.009638</dc:date>
      </cc:Work>
    </rdf:RDF>
  </metadata>
  <defs/>
  <g fill="none" id="layer1" inkscape:groupmode="layer" inkscape:label="1" stroke="#0000ff" style="display:inline">
    <polyline points="0.0,11.3514 1.0811,10.8108 2.1622,9.7297 4.8649,5.9459 6.4865,2.1622 6.4865,0.5405 5.9459,0.0 5.4054,0.0 4.8649,0.5405 4.3243,1.6216 4.3243,2.7027 4.8649,3.7838 8.6486,7.027 9.1892,8.1081 9.1892,9.1892 8.6486,10.2703 8.1081,10.8108 6.4865,11.3514 4.3243,11.3514 2.7027,10.8108 1.6216,9.7297 1.0811,8.6486 1.0811,7.5676"/>
    <polyline points="15.6757,8.1081 15.1351,7.027 14.0541,6.4865 12.973,6.4865 11.3514,7.5676 10.8108,8.6486 10.8108,9.7297 11.3514,10.8108 12.4324,11.3514 13.5135,11.3514 14.5946,10.8108 16.2162,6.4865 15.6757,9.1892 15.6757,10.8108 16.2162,11.3514 17.8378,10.8108 19.4595,8.6486"/>
    <polyline points="19.4595,8.6486 22.7027,3.2432 23.2432,1.6216 23.2432,0.5405 22.7027,0.0 21.6216,0.5405 21.0811,1.6216 20.0,7.5676 20.0,10.8108 20.5405,11.3514 22.1622,10.8108 23.7838,8.6486"/>
    <polyline points="23.7838,8.6486 24.8649,6.4865 24.3243,9.1892 24.3243,10.8108 24.8649,11.3514 27.027,10.8108 28.1081,9.7297 28.6486,8.1081 28.6486,6.4865"/>
    <polyline points="28.6486,6.4865 29.1892,8.6486 29.7297,9.1892 30.8108,9.1892 31.8919,8.6486"/>
    <polyline points="36.7568,8.1081 36.2162,7.027 35.1351,6.4865 34.0541,6.4865 32.4324,7.5676 31.8919,8.6486 31.8919,9.7297 32.4324,10.8108 33.5135,11.3514 34.5946,11.3514 35.6757,10.8108 37.2973,6.4865 36.7568,9.1892 36.7568,10.8108 37.2973,11.3514 38.9189,10.8108 40.5405,8.6486"/>
    <polyline points="45.4054,8.1081 44.8649,7.027 43.7838,6.4865 42.7027,6.4865 41.0811,7.5676 40.5405,8.6486 40.5405,9.7297 41.0811,10.8108 42.1622,11.3514 43.2432,11.3514 44.3243,10.8108 48.1081,0.0"/>
    <polyline points="45.9459,6.4865 45.4054,9.1892 45.4054,10.8108 45.9459,11.3514 47.5676,10.8108 49.1892,8.6486"/>
    <polyline points="52.4324,6.4865 51.3514,6.4865 49.7297,7.5676 49.1892,8.6486 49.1892,9.7297 49.7297,10.8108 50.8108,11.3514 51.8919,11.3514 53.5135,10.2703 54.0541,9.1892 54.0541,8.1081 53.5135,7.027 52.4324,6.4865 51.8919,7.027 51.8919,8.1081 52.4324,9.1892 53.5135,9.7297 55.1351,9.7297 56.7568,8.6486"/>
    <polyline points="56.7568,8.6486 58.3784,5.9459 58.3784,7.027 60.0,7.027 60.5405,7.5676 60.5405,8.6486 60.0,10.2703 60.0,10.8108 60.5405,11.3514 62.1622,10.8108 63.7838,8.6486"/>
    <polyline points="79.4595,0.0 78.3784,0.5405 77.8378,1.6216 76.7568,7.027 75.6757,9.7297 74.5946,10.8108 73.5135,11.3514 72.4324,11.3514 71.8919,10.8108 71.8919,9.7297 72.4324,9.1892 73.5135,9.1892 74.5946,9.7297 75.6757,10.8108 77.2973,11.3514 78.9189,11.3514 80.5405,10.8108 81.6216,9.7297 82.7027,7.5676 83.2432,4.8649 83.2432,2.7027 82.7027,1.0811 82.1622,0.5405 81.0811,0.0 79.4595,0.0 78.3784,1.0811 78.3784,2.1622 78.9189,3.7838 81.0811,6.4865 83.7838,8.1081"/>
    <polyline points="89.7297,8.1081 89.1892,7.027 88.1081,6.4865 87.027,6.4865 85.4054,7.5676 84.8649,8.6486 84.8649,9.7297 85.4054,10.8108 86.4865,11.3514 87.5676,11.3514 88.6486,10.8108 90.2703,6.4865 89.7297,9.1892 89.7297,10.8108 90.2703,11.3514 91.8919,10.8108 93.5135,8.6486"/>
    <polyline points="93.5135,8.6486 96.7568,3.2432 97.2973,1.6216 97.2973,0.5405 96.7568,0.0 95.6757,0.5405 94.5946,3.7838 94.0541,7.5676 94.0541,10.8108 94.5946,11.3514 96.2162,10.8108 97.8378,8.6486"/>
    <polyline points="105.4054,2.1622 105.4054,2.7027 105.9459,3.2432 107.027,3.2432 107.5676,2.7027 107.5676,1.6216 107.027,0.5405 105.4054,0.0 103.2432,0.0 101.6216,0.5405 101.0811,1.6216 101.0811,3.2432 102.1622,4.8649 103.7838,5.4054 102.1622,5.4054 100.5405,5.9459 99.4595,7.5676 99.4595,9.1892 100.5405,10.8108 102.1622,11.3514 103.7838,11.3514 105.4054,10.8108 106.4865,9.7297 107.027,8.6486"/>
  </g>
</svg>
